<svg xmlns="http://www.w3.org/2000/svg" width="100.347" height="39.985" viewBox="0 0 100.347 39.985">
    <defs>
        <style>
            .cls-1{fill:#1e0246}
        </style>
    </defs>
    <g id="Group_256" transform="translate(-233.048 -439.368)">
        <g id="Group_181" transform="translate(276.147 451.309)">
            <path id="Path_2" d="M458.26 516.487l-.231.231h-3l-.231-.231-5.079-13.387v-2.31l.231-.231h2.078l.231.231 4.155 11.311h.231l4.155-11.311.231-.231h2.077l.231.231v2.31z" class="cls-1" transform="translate(-449.719 -500.328)"/>
            <path id="Path_3" d="M533.955 516.718h-2.77l-.231-.231v-15.7l.231-.231h2.77l.231.231v15.7z" class="cls-1" transform="translate(-514.795 -500.328)"/>
            <path id="Path_4" d="M567.82 516.019c-4.617 0-6.694-2.309-6.694-5.309l.231-.231h2.77l.23.231c0 1.616.924 2.539 3.694 2.539 2.078 0 3.232-.692 3.232-2.078 0-1.616-.923-2.078-4.155-2.539s-5.771-1.616-5.771-4.848c0-2.308 1.847-4.386 6.233-4.386s6.233 2.077 6.233 4.847l-.231.231h-2.77l-.231-.231c0-1.385-.693-2.077-3.232-2.077-2.077 0-2.77.693-2.77 1.616 0 1.385.923 1.847 4.155 2.308s5.771 1.847 5.771 5.079c0 2.54-1.847 4.848-6.695 4.848z" class="cls-1" transform="translate(-538.966 -499.399)"/>
            <path id="Path_5" d="M645.362 516.718h-2.77l-.231-.231v-15.7l.231-.231h2.77l.231.231v15.7z" class="cls-1" transform="translate(-604.042 -500.328)"/>
            <path id="Path_6" d="M683.369 503.329h-4.617l-.23.231v12.927l-.231.231h-2.77l-.231-.231V503.56l-.231-.231h-4.617l-.231-.231v-2.308l.231-.231h12.927l.231.231v2.31z" class="cls-1" transform="translate(-626.352 -500.328)"/>
        </g>
        <g id="Group_182" transform="translate(233.048 439.368)">
            <path id="Path_7" d="M361.145 517.609a1.691 1.691 0 0 0 1.847-1.846c0-1.154-.461-1.847-1.847-1.847h-3.693l-.231.231v3.232l.231.231z" class="cls-1" transform="translate(-332.521 -499.087)"/>
            <path id="Path_8" d="M284.1 513.916h-2.078l-.231.231V524.3l.231.231h2.078c3.232 0 4.386-1.616 4.386-5.309s-1.15-5.306-4.386-5.306z" class="cls-1" transform="translate(-272.099 -499.087)"/>
            <path id="Path_9" d="M253.04 439.368a19.992 19.992 0 1 0 19.992 19.992 19.992 19.992 0 0 0-19.992-19.992zm-8.218 28.217h-5.078l-.231-.231v-15.7l.231-.231h5.078c5.771 0 7.848 3 7.848 8.079s-2.077 8.083-7.848 8.083zm17.773 0h-7.848l-.231-.231v-15.7l.231-.231h7.386c2.308 0 4.616 1.154 4.616 4.155a3.28 3.28 0 0 1-2.308 3.462v.231c1.847.462 2.77 1.846 2.77 3.924 0 3.235-2.311 4.39-4.611 4.39z" class="cls-1" transform="translate(-233.048 -439.368)"/>
            <path id="Path_10" d="M361.145 546.408h-3.693l-.231.231v3.693l.231.231h3.693c1.616 0 2.308-.692 2.308-2.077s-.692-2.078-2.308-2.078z" class="cls-1" transform="translate(-332.521 -525.116)"/>
        </g>
    </g>
</svg>