<?xml version="1.0" encoding="utf-8"?>
<!-- Generator: Adobe Illustrator 25.2.3, SVG Export Plug-In . SVG Version: 6.00 Build 0)  -->
<svg version="1.1" id="Layer_1" xmlns="http://www.w3.org/2000/svg" xmlns:xlink="http://www.w3.org/1999/xlink" x="0px" y="0px"
	 viewBox="0 0 980 410" style="enable-background:new 0 0 980 410;" xml:space="preserve">
<style type="text/css">
	.st0{fill:#1A0F50;}
</style>
<path class="st0" d="M509.7,283l-2.2,2.2h-28.9l-2.2-2.2l-48.9-128.8V132l2.2-2.2h20l2.2,2.2l40,108.8h2.2l40-108.8l2.2-2.2h20
	l2.2,2.2v22.2L509.7,283z"/>
<path class="st0" d="M609.9,285.2h-26.6l-2.2-2.2V132l2.2-2.2h26.6l2.2,2.2v151L609.9,285.2z"/>
<path class="st0" d="M700,287.4c-44.4,0-64.4-22.2-64.4-51.1l2.2-2.2h26.6l2.2,2.2c0,15.5,8.9,24.4,35.5,24.4c20,0,31.1-6.7,31.1-20
	c0-15.5-8.9-20-40-24.4s-55.5-15.5-55.5-46.6c0-22.2,17.8-42.2,59.9-42.2s59.9,20,59.9,46.6l-2.2,2.2h-26.6l-2.2-2.2
	c0-13.3-6.7-20-31.1-20c-20,0-26.6,6.7-26.6,15.5c0,13.3,8.9,17.8,40,22.2s55.5,17.8,55.5,48.8C764.4,265.2,746.7,287.4,700,287.4z"
	/>
<path class="st0" d="M816.8,285.2h-26.6L788,283V132l2.2-2.2h26.6l2.1,2.2v151L816.8,285.2z"/>
<path class="st0" d="M967.8,156.4h-44.4l-2.2,2.2V283l-2.2,2.2h-26.6l-2.2-2.2V158.6l-2.2-2.2h-44.4l-2.2-2.2V132l2.2-2.2h124.3
	l2.2,2.2v22.2L967.8,156.4z"/>
<path class="st0" d="M295.5,190.9c13.3,0,17.8-8.9,17.8-17.8c0-11.1-4.4-17.8-17.8-17.8H260l-2.2,2.2v31.1l2.2,2.2L295.5,190.9z"/>
<path class="st0" d="M132.1,155.3h-20l-2.2,2.2v97.7l2.2,2.2h20c31.1,0,42.2-15.5,42.2-51.1S163.2,155.3,132.1,155.3z"/>
<path class="st0" d="M206.7,8.3C98.1,8.3,10,96.3,10,205s88.1,196.7,196.7,196.7S403.5,313.7,403.5,205S315.4,8.3,206.7,8.3z
	 M129.9,284.1H81l-2.2-2.2v-151l2.2-2.2h48.8c55.5,0,75.5,28.9,75.5,77.7S185.4,284.1,129.9,284.1z M304.4,284.1h-75.5l-2.2-2.2
	v-151l2.2-2.2h71c22.2,0,44.4,11.1,44.4,40c0,15.5-6.7,28.9-22.2,33.3v2.2c17.8,4.4,26.6,17.8,26.6,37.7
	C348.8,273,326.6,284.1,304.4,284.1z"/>
<path class="st0" d="M295.5,217.5H260l-2.2,2.2v35.5l2.2,2.2h35.5c15.5,0,22.2-6.7,22.2-20S311,217.5,295.5,217.5z"/>
</svg>
