<svg id="Layer_1" data-name="Layer 1" xmlns="http://www.w3.org/2000/svg" viewBox="0 0 1906 420"><defs><style>.cls-1{fill:#190f50;}.cls-2{fill:#fff;}</style></defs><path class="cls-1" d="M210.28,412.4C98.5,412.4,7.88,321.78,7.88,210S98.5,7.6,210.28,7.6H1695.72c111.78,0,202.4,90.62,202.4,202.4s-90.62,202.4-202.4,202.4Z"/><path class="cls-2" d="M1695.72,418H210.28c-114.69,0-208-93.31-208-208S95.59,2,210.28,2H1695.72c114.69,0,208,93.31,208,208S1810.41,418,1695.72,418ZM210.28,13.19c-108.52,0-196.8,88.29-196.8,196.81s88.28,196.81,196.8,196.81H1695.72c108.52,0,196.8-88.29,196.8-196.81s-88.28-196.81-196.8-196.81Z"/><path class="cls-2" d="M250.3,316c-53.09,0-87.45-25-87.45-71.83L166,241h25l3.12,3.12c0,31.23,21.86,43.72,59.34,43.72,28.11,0,50-9.37,50-34.35,0-28.11-18.74-34.35-62.46-40.6s-71.83-25-71.83-62.46c0-28.11,21.86-59.33,78.07-59.33,46.85,0,81.2,18.73,81.2,65.58l-3.12,3.12h-25l-3.12-3.12c0-25-12.49-37.48-53.09-37.48-28.11,0-43.72,12.49-43.72,31.23,0,25,15.61,31.23,59.34,37.48s74.95,21.86,74.95,65.58C334.62,287.87,309.63,316,250.3,316Z"/><path class="cls-2" d="M447,312.85h-25c-21.86,0-43.72-12.49-43.72-40.59V187.94l-3.12-3.13H353.35l-3.12-3.12V159.83l3.12-3.12h21.87l3.12-3.13v-28.1l3.12-3.13h25l3.13,3.13v28.1l3.12,3.13H447l3.13,3.12v21.86L447,184.81H412.69l-3.12,3.13v84.32c0,9.36,6.24,12.49,12.49,12.49h25l3.13,3.12v21.86Z"/><path class="cls-2" d="M597,312.85H575.08L572,309.73l-3.12-12.49h-3.12S553.22,316,522,316c-34.35,0-53.09-18.74-53.09-50,0-34.35,28.11-50,68.71-50a128.69,128.69,0,0,1,28.11,3.13l3.12-3.13V209.8c0-21.86-9.37-28.11-31.23-28.11s-31.23,6.25-31.23,18.74l-3.12,3.12h-25l-3.12-3.12c0-21.86,15.62-46.85,62.46-46.85s62.46,21.86,62.46,68.71v87.44Zm-28.11-65.58-3.12-3.12s-9.37-3.12-25-3.12c-28.11,0-40.6,9.37-40.6,25s9.37,21.86,28.11,21.86c25,0,40.6-12.49,40.6-31.23Z"/><path class="cls-2" d="M753.1,312.85h-25L725,309.73V219.17c0-15.62-3.13-37.48-31.23-37.48s-40.6,15.62-40.6,53.09v75L650,312.85h-25l-3.12-3.12V159.83l3.12-3.12h21.86l3.13,3.12,3.12,12.49h3.12s12.49-18.74,40.6-18.74c43.72,0,59.34,28.11,59.34,65.59v90.56Z"/><path class="cls-2" d="M915.49,312.85H893.63l-3.12-3.12-3.13-12.49h-3.12S871.77,316,843.66,316c-43.72,0-68.7-34.36-68.7-81.2s25-81.2,68.7-81.2c28.11,0,40.6,18.74,40.6,18.74h3.12V97.37l3.13-3.12h25l3.12,3.12V309.73ZM846.78,181.69c-25,0-40.59,18.74-40.59,53.09s15.61,53.09,40.59,53.09,40.6-15.61,40.6-53.09S871.77,181.69,846.78,181.69Z"/><path class="cls-2" d="M1018.54,316c-28.1,0-40.59-18.74-40.59-18.74h-3.13l-3.12,12.49-3.12,3.12H946.72l-3.13-3.12V97.37l3.13-3.12h25l3.12,3.12v74.95H978s12.49-18.74,40.59-18.74c40.6,0,68.71,31.23,68.71,81.2C1087.25,281.62,1059.14,316,1018.54,316Zm-3.12-134.29c-25,0-40.6,15.62-40.6,53.09s15.62,53.09,40.6,53.09,40.6-18.74,40.6-53.09S1040.4,181.69,1015.42,181.69Z"/><path class="cls-2" d="M1190.93,306.61c-18.74,46.84-31.23,56.21-68.7,56.21H1116l-3.13-3.12V337.84l3.13-3.13h6.25c15.61,0,25-3.12,31.22-18.73v-3.13l-53.09-131.16V159.83l3.13-3.12h18.74l3.12,3.12,43.72,115.55h3.12l43.72-115.55,3.13-3.12h18.73l3.13,3.12v21.86Z"/><path class="cls-2" d="M1695.72,80.9a129.1,129.1,0,0,1,0,258.2H1435.54a129.1,129.1,0,1,1,0-258.2Z"/><path class="cls-1" d="M1574.84,291.91h-27.92l-2.33-2.33V198.86h-2.32l-37.22,90.72-2.33,2.33h-25.59l-2.32-2.33-37.22-90.72h-2.33v90.72l-2.33,2.33H1405l-2.33-2.33V131.4l2.33-2.33h34.89l2.33,2.33,46.52,114h2.33l46.53-114,2.32-2.33h34.9l2.32,2.33V289.58Z"/><path class="cls-1" d="M1689.56,226.77h-44.2L1643,229.1v60.48l-2.32,2.33h-27.92l-2.33-2.33V131.4l2.33-2.33h76.77c32.57,0,55.83,16.28,55.83,48.85S1722.13,226.77,1689.56,226.77Zm0-69.79h-44.2l-2.33,2.33v37.22l2.33,2.33h44.2c14,0,23.26-4.65,23.26-20.94S1703.52,157,1689.56,157Z"/></svg>