<svg xmlns="http://www.w3.org/2000/svg" width="1280" height="1753.168" viewBox="0 0 1280 1753.168">
    <defs>
        <clipPath id="lih2sece4a">
            <path fill="#1a0f50" d="M0 0H1280V1753.168H0z"/>
        </clipPath>
    </defs>
    <g clip-path="url(#lih2sece4a)">
        <g fill="none" stroke="#fff" stroke-miterlimit="10" opacity="0.1" transform="translate(10.5 97.5)">
            <circle cx="31.035" cy="31.035" r="31.035" opacity="0.01" transform="translate(62.965 212.965)"/>
            <circle cx="49.569" cy="49.569" r="49.569" opacity="0.02" transform="translate(44.431 194.431)"/>
            <circle cx="68.104" cy="68.104" r="68.104" opacity="0.03" transform="translate(25.896 175.896)"/>
            <circle cx="86.639" cy="86.639" r="86.639" opacity="0.04" transform="translate(7.361 157.361)"/>
            <circle cx="105.173" cy="105.173" r="105.173" opacity="0.05" transform="translate(-11.173 138.827)"/>
            <circle cx="123.708" cy="123.708" r="123.708" opacity="0.059" transform="translate(-29.708 120.292)"/>
            <circle cx="142.243" cy="142.243" r="142.243" opacity="0.069" transform="translate(-48.243 101.757)"/>
            <circle cx="160.777" cy="160.777" r="160.777" opacity="0.079" transform="translate(-66.777 83.223)"/>
            <circle cx="179.312" cy="179.312" r="179.312" opacity="0.089" transform="translate(-85.312 64.688)"/>
            <circle cx="197.847" cy="197.847" r="197.847" opacity="0.099" transform="translate(-103.847 46.153)"/>
            <circle cx="216.381" cy="216.381" r="216.381" opacity="0.109" transform="translate(-122.381 27.619)"/>
            <circle cx="234.916" cy="234.916" r="234.916" opacity="0.119" transform="translate(-140.916 9.084)"/>
            <circle cx="253.451" cy="253.451" r="253.451" opacity="0.129" transform="translate(-159.451 -9.451)"/>
            <circle cx="271.985" cy="271.985" r="271.985" opacity="0.139" transform="translate(-177.985 -27.985)"/>
            <circle cx="290.52" cy="290.52" r="290.52" opacity="0.149" transform="translate(-196.52 -46.52)"/>
            <circle cx="309.054" cy="309.054" r="309.054" opacity="0.158" transform="translate(-215.054 -65.054)"/>
            <circle cx="327.589" cy="327.589" r="327.589" opacity="0.168" transform="translate(-233.589 -83.589)"/>
            <circle cx="346.124" cy="346.124" r="346.124" opacity="0.178" transform="translate(-252.124 -102.124)"/>
            <circle cx="364.658" cy="364.658" r="364.658" opacity="0.188" transform="translate(-270.658 -120.658)"/>
            <circle cx="383.193" cy="383.193" r="383.193" opacity="0.198" transform="translate(-289.193 -139.193)"/>
            <circle cx="401.728" cy="401.728" r="401.728" opacity="0.208" transform="translate(-307.728 -157.728)"/>
            <circle cx="420.262" cy="420.262" r="420.262" opacity="0.218" transform="translate(-326.262 -176.262)"/>
            <circle cx="438.797" cy="438.797" r="438.797" opacity="0.228" transform="translate(-344.797 -194.797)"/>
            <circle cx="457.332" cy="457.332" r="457.332" opacity="0.238" transform="translate(-363.332 -213.332)"/>
            <circle cx="475.866" cy="475.866" r="475.866" opacity="0.248" transform="translate(-381.866 -231.866)"/>
            <circle cx="494.401" cy="494.401" r="494.401" opacity="0.257" transform="translate(-400.401 -250.401)"/>
            <circle cx="512.936" cy="512.936" r="512.936" opacity="0.267" transform="translate(-418.936 -268.936)"/>
            <circle cx="531.47" cy="531.47" r="531.47" opacity="0.277" transform="translate(-437.47 -287.47)"/>
            <circle cx="550.005" cy="550.005" r="550.005" opacity="0.287" transform="translate(-456.005 -306.005)"/>
            <circle cx="568.54" cy="568.54" r="568.54" opacity="0.297" transform="translate(-474.54 -324.54)"/>
            <circle cx="587.074" cy="587.074" r="587.074" opacity="0.307" transform="translate(-493.074 -343.074)"/>
            <circle cx="605.609" cy="605.609" r="605.609" opacity="0.317" transform="translate(-511.609 -361.609)"/>
            <circle cx="624.144" cy="624.144" r="624.144" opacity="0.327" transform="translate(-530.144 -380.144)"/>
            <circle cx="642.678" cy="642.678" r="642.678" opacity="0.337" transform="translate(-548.678 -398.678)"/>
            <circle cx="661.213" cy="661.213" r="661.213" opacity="0.347" transform="translate(-567.213 -417.213)"/>
            <circle cx="679.747" cy="679.747" r="679.747" opacity="0.356" transform="translate(-585.747 -435.747)"/>
            <circle cx="698.282" cy="698.282" r="698.282" opacity="0.366" transform="translate(-604.282 -454.282)"/>
            <circle cx="716.817" cy="716.817" r="716.817" opacity="0.376" transform="translate(-622.817 -472.817)"/>
            <circle cx="735.352" cy="735.352" r="735.352" opacity="0.386" transform="translate(-641.352 -491.352)"/>
            <circle cx="753.886" cy="753.886" r="753.886" opacity="0.396" transform="translate(-659.886 -509.886)"/>
            <circle cx="772.421" cy="772.421" r="772.421" opacity="0.406" transform="translate(-678.421 -528.421)"/>
            <circle cx="790.955" cy="790.955" r="790.955" opacity="0.416" transform="translate(-696.955 -546.955)"/>
            <circle cx="809.49" cy="809.49" r="809.49" opacity="0.426" transform="translate(-715.49 -565.49)"/>
            <circle cx="828.025" cy="828.025" r="828.025" opacity="0.436" transform="translate(-734.025 -584.025)"/>
            <circle cx="846.559" cy="846.559" r="846.559" opacity="0.446" transform="translate(-752.559 -602.559)"/>
            <circle cx="865.094" cy="865.094" r="865.094" opacity="0.455" transform="translate(-771.094 -621.094)"/>
            <circle cx="883.629" cy="883.629" r="883.629" opacity="0.465" transform="translate(-789.629 -639.629)"/>
            <circle cx="902.163" cy="902.163" r="902.163" opacity="0.475" transform="translate(-808.163 -658.163)"/>
            <circle cx="920.698" cy="920.698" r="920.698" opacity="0.485" transform="translate(-826.698 -676.698)"/>
            <circle cx="939.233" cy="939.233" r="939.233" opacity="0.495" transform="translate(-845.233 -695.233)"/>
            <circle cx="957.767" cy="957.767" r="957.767" opacity="0.505" transform="translate(-863.767 -713.767)"/>
            <circle cx="976.302" cy="976.302" r="976.302" opacity="0.515" transform="translate(-882.302 -732.302)"/>
            <circle cx="994.837" cy="994.837" r="994.837" opacity="0.525" transform="translate(-900.837 -750.837)"/>
            <circle cx="1013.371" cy="1013.371" r="1013.371" opacity="0.535" transform="translate(-919.371 -769.371)"/>
            <circle cx="1031.906" cy="1031.906" r="1031.906" opacity="0.545" transform="translate(-937.906 -787.906)"/>
            <circle cx="1050.441" cy="1050.441" r="1050.441" opacity="0.554" transform="translate(-956.441 -806.441)"/>
            <circle cx="1068.975" cy="1068.975" r="1068.975" opacity="0.564" transform="translate(-974.975 -824.975)"/>
            <circle cx="1087.51" cy="1087.51" r="1087.51" opacity="0.574" transform="translate(-993.51 -843.51)"/>
            <circle cx="1106.045" cy="1106.045" r="1106.045" opacity="0.584" transform="translate(-1012.045 -862.045)"/>
            <circle cx="1124.579" cy="1124.579" r="1124.579" opacity="0.594" transform="translate(-1030.579 -880.579)"/>
            <circle cx="1143.114" cy="1143.114" r="1143.114" opacity="0.604" transform="translate(-1049.114 -899.114)"/>
            <circle cx="1161.649" cy="1161.649" r="1161.649" opacity="0.614" transform="translate(-1067.649 -917.649)"/>
            <circle cx="1180.183" cy="1180.183" r="1180.183" opacity="0.624" transform="translate(-1086.183 -936.183)"/>
            <circle cx="1198.718" cy="1198.718" r="1198.718" opacity="0.634" transform="translate(-1104.718 -954.718)"/>
            <circle cx="1217.252" cy="1217.252" r="1217.252" opacity="0.644" transform="translate(-1123.252 -973.252)"/>
            <circle cx="1235.787" cy="1235.787" r="1235.787" opacity="0.653" transform="translate(-1141.787 -991.787)"/>
            <circle cx="1254.322" cy="1254.322" r="1254.322" opacity="0.663" transform="translate(-1160.322 -1010.322)"/>
            <circle cx="1272.856" cy="1272.856" r="1272.856" opacity="0.673" transform="translate(-1178.856 -1028.856)"/>
            <circle cx="1291.391" cy="1291.391" r="1291.391" opacity="0.683" transform="translate(-1197.391 -1047.391)"/>
            <circle cx="1309.926" cy="1309.926" r="1309.926" opacity="0.693" transform="translate(-1215.926 -1065.926)"/>
            <circle cx="1328.46" cy="1328.46" r="1328.46" opacity="0.703" transform="translate(-1234.46 -1084.46)"/>
            <circle cx="1346.995" cy="1346.995" r="1346.995" opacity="0.713" transform="translate(-1252.995 -1102.995)"/>
            <circle cx="1365.53" cy="1365.53" r="1365.53" opacity="0.723" transform="translate(-1271.53 -1121.53)"/>
            <circle cx="1384.064" cy="1384.064" r="1384.064" opacity="0.733" transform="translate(-1290.064 -1140.064)"/>
            <circle cx="1402.599" cy="1402.599" r="1402.599" opacity="0.743" transform="translate(-1308.599 -1158.599)"/>
            <circle cx="1421.134" cy="1421.134" r="1421.134" opacity="0.752" transform="translate(-1327.134 -1177.134)"/>
            <circle cx="1439.668" cy="1439.668" r="1439.668" opacity="0.762" transform="translate(-1345.668 -1195.668)"/>
            <circle cx="1458.203" cy="1458.203" r="1458.203" opacity="0.772" transform="translate(-1364.203 -1214.203)"/>
            <circle cx="1476.738" cy="1476.738" r="1476.738" opacity="0.782" transform="translate(-1382.738 -1232.738)"/>
            <circle cx="1495.272" cy="1495.272" r="1495.272" opacity="0.792" transform="translate(-1401.272 -1251.272)"/>
            <circle cx="1513.807" cy="1513.807" r="1513.807" opacity="0.802" transform="translate(-1419.807 -1269.807)"/>
            <circle cx="1532.342" cy="1532.342" r="1532.342" opacity="0.812" transform="translate(-1438.342 -1288.342)"/>
            <circle cx="1550.876" cy="1550.876" r="1550.876" opacity="0.822" transform="translate(-1456.876 -1306.876)"/>
            <circle cx="1569.411" cy="1569.411" r="1569.411" opacity="0.832" transform="translate(-1475.411 -1325.411)"/>
            <circle cx="1587.946" cy="1587.946" r="1587.946" opacity="0.842" transform="translate(-1493.946 -1343.946)"/>
            <circle cx="1606.48" cy="1606.48" r="1606.48" opacity="0.851" transform="translate(-1512.48 -1362.48)"/>
            <circle cx="1625.015" cy="1625.015" r="1625.015" opacity="0.861" transform="translate(-1531.015 -1381.015)"/>
            <circle cx="1643.55" cy="1643.55" r="1643.55" opacity="0.871" transform="translate(-1549.55 -1399.55)"/>
            <circle cx="1662.084" cy="1662.084" r="1662.084" opacity="0.881" transform="translate(-1568.084 -1418.084)"/>
            <circle cx="1680.619" cy="1680.619" r="1680.619" opacity="0.891" transform="translate(-1586.619 -1436.619)"/>
            <circle cx="1699.153" cy="1699.153" r="1699.153" opacity="0.901" transform="translate(-1605.153 -1455.153)"/>
            <circle cx="1717.688" cy="1717.688" r="1717.688" opacity="0.911" transform="translate(-1623.688 -1473.688)"/>
            <circle cx="1736.223" cy="1736.223" r="1736.223" opacity="0.921" transform="translate(-1642.223 -1492.223)"/>
            <circle cx="1754.757" cy="1754.757" r="1754.757" opacity="0.931" transform="translate(-1660.757 -1510.757)"/>
            <circle cx="1773.292" cy="1773.292" r="1773.292" opacity="0.941" transform="translate(-1679.292 -1529.292)"/>
            <circle cx="1791.827" cy="1791.827" r="1791.827" opacity="0.95" transform="translate(-1697.827 -1547.827)"/>
            <circle cx="1810.361" cy="1810.361" r="1810.361" opacity="0.96" transform="translate(-1716.361 -1566.361)"/>
            <circle cx="1828.896" cy="1828.896" r="1828.896" opacity="0.97" transform="translate(-1734.896 -1584.896)"/>
            <circle cx="1847.431" cy="1847.431" r="1847.431" opacity="0.98" transform="translate(-1753.431 -1603.431)"/>
            <circle cx="1865.965" cy="1865.965" r="1865.965" opacity="0.99" transform="translate(-1771.965 -1621.965)"/>
            <circle cx="1884.5" cy="1884.5" r="1884.5" transform="translate(-1790.5 -1640.5)"/>
        </g>
    </g>
</svg>